<?xml version="1.0" encoding="UTF-8"?>
<svg width="752pt" height="752pt" version="1.1" viewBox="0 0 752 752" xmlns="http://www.w3.org/2000/svg">
 <g>
  <path fill="#592941" d="m557.54 462.67h-18.469v-182.8c0-17.445-14.129-31.57-31.57-31.57h-30.387l15.863 15.785h14.523c8.7617 0 15.785 7.1055 15.785 15.785v182.72h-294.49v-182.72c0-8.6836 7.0234-15.785 15.785-15.785h106.48c3.3945-1.8164 7.2617-2.7617 11.207-2.7617 1.5781 0 3.2344 0.23828 4.8164 0.55078l13.574-13.574h-136.07c-17.445 0-31.57 14.129-31.57 31.57v182.8l-18.551 0.003907c-2.7617 0-5.2891 1.3438-6.7109 3.7109-1.4219 2.2891-1.5781 5.1289-0.39453 7.5781 15.391 31.887 48.383 52.488 83.824 52.488h209.56c35.52 0 68.434-20.602 83.902-52.488 1.1836-2.4453 1.0273-5.2891-0.47266-7.5781-1.418-2.3711-3.9453-3.7109-6.6289-3.7109z"/>
  <path fill="#592941" d="m497.79 294.55c0-2.1328-0.86719-4.1055-2.2891-5.6055l-61.094-61.012c-3.0781-3.1562-8.0508-3.1562-11.129 0l-53.438 53.438-2.0508-2.0508c-2.9219-2.9219-8.207-2.9219-11.129 0l-67.168 67.09c-11.602 11.684-17.996 27.152-18.074 43.727 0.078125 16.574 6.4727 32.125 18.074 43.727 12.078 12.078 27.941 18.074 43.727 18.074 15.863 0 31.652-6 43.727-18.074l67.09-67.09c1.5-1.5 2.3672-3.4727 2.3672-5.6055 0-2.1328-0.86719-4.1055-2.3672-5.6055l-1.9727-1.9727 53.438-53.516c1.4219-1.4219 2.2891-3.4727 2.2891-5.5234zm-153.68 110.5c-7.1055 7.1055-18.629 7.1055-25.809 0-7.1055-7.1055-7.1055-18.707 0-25.809 7.1836-7.1055 18.707-7.1055 25.809 0 7.1836 7.1016 7.1836 18.707 0 25.809zm71.039-134.42 10.891-10.891c3.0781-3.0781 8.0508-3.0781 11.129 0s3.0781 8.0508 0 11.129l-10.891 10.891c-1.5781 1.5781-3.5508 2.2891-5.6055 2.2891-2.0508 0-4.0273-0.78906-5.6055-2.2891-2.9961-3-2.9961-8.0508 0.082032-11.129zm48.461 26.758-10.891 10.891c-1.5781 1.5781-3.5508 2.2891-5.6055 2.2891-2.0508 0-4.0273-0.78906-5.6055-2.2891-3.0781-3.0781-3.0781-8.0508 0-11.129l10.891-10.891c3.0781-3.0781 8.0508-3.0781 11.129 0 3.082 3.0781 3.1602 8.0508 0.082031 11.129z"/>
 </g>
</svg>
