<?xml version="1.0" encoding="UTF-8"?>
<svg width="752pt" height="752pt" version="1.1" viewBox="0 0 752 752" xmlns="http://www.w3.org/2000/svg">
 <path d="m370.02 158.61c-56.57 1.5586-110.3 25.148-149.73 65.746-39.43 40.598-61.445 94.988-61.352 151.58-0.085937 38.156 9.8867 75.66 28.918 108.73 19.027 33.074 46.438 60.547 79.469 79.648 33.031 19.102 70.512 29.16 108.67 29.16s75.641-10.059 108.67-29.16c33.027-19.102 60.441-46.574 79.469-79.648s29.004-70.578 28.918-108.73c0.0625-38.816-10.285-76.941-29.965-110.4-19.68-33.457-47.973-61.027-81.93-79.832-33.957-18.809-72.336-28.164-111.14-27.094zm3.6094 99.176c6.9258-0.25391 13.66 2.3047 18.664 7.0977 5.0078 4.7891 7.8633 11.402 7.9141 18.332v68.664h68.664c9.1406 0.023438 17.582 4.918 22.145 12.84 4.5664 7.9219 4.5664 17.676 0 25.598-4.5625 7.9258-13.004 12.816-22.145 12.844h-68.664v68.66c-0.12891 9.0742-5.043 17.402-12.922 21.902-7.8789 4.5-17.551 4.5-25.43 0s-12.797-12.828-12.922-21.902v-68.66h-68.668c-9.1445-0.027344-17.582-4.918-22.148-12.844-4.5625-7.9219-4.5625-17.676 0-25.598 4.5664-7.9219 13.004-12.816 22.148-12.84h68.668v-68.664c0.046875-6.6016 2.6445-12.934 7.2422-17.672 4.6016-4.7383 10.855-7.5156 17.453-7.7578z" fill="#cf995f"/>
</svg>
