<?xml version="1.0" encoding="UTF-8"?>
<svg width="752pt" height="752pt" version="1.1" viewBox="0 0 752 752" xmlns="http://www.w3.org/2000/svg">
 <path d="m550.8 369.39v152.93c0 6.1797-2.457 12.109-6.8281 16.48-4.3672 4.3711-10.297 6.8242-16.477 6.8242h-302.98c-6.1797 0-12.109-2.4531-16.48-6.8242-4.3711-4.3711-6.8242-10.301-6.8281-16.48v-152.93c0-1.2422 0.19922-2.4766 0.59375-3.6562l35.355-103.51c1.5742-4.5977 5.8945-7.6914 10.754-7.6914l80.094-0.066406-6.7344 10.785c-2.2734 3.6836-3.4805 7.9258-3.4844 12.258l-62.324 0.09375-30.793 93.234 69.766-0.003907c6.1797 0.003907 12.109 2.457 16.48 6.8281s6.8242 10.297 6.8281 16.48v11.652h116.53v-11.652c0-6.1836 2.457-12.109 6.8281-16.48s10.297-6.8242 16.48-6.8281h69.746l-32.137-93.586-56.41 0.078125c-0.039063-4.2656-1.2461-8.4375-3.4922-12.062l-6.793-10.879 75.539-0.058593c4.8594 0.003906 9.1797 3.0977 10.754 7.6953l35.383 103.58h-0.003906c0.42188 1.2227 0.63672 2.5 0.63672 3.793zm-209.77-80.129h13.93v46.613c-0.003907 3.0898 1.2227 6.0547 3.4102 8.2422 2.1836 2.1836 5.1484 3.4141 8.2422 3.4102h23.309-0.003906c3.0938 0.003906 6.0547-1.2266 8.2422-3.4102 2.1836-2.1875 3.4141-5.1523 3.4102-8.2422v-46.613h13.934c4.2344 0 8.1367-2.2969 10.191-6.0039 2.0547-3.707 1.9375-8.2344-0.30469-11.828l-37.246-59.586c-2.1289-3.4023-5.8633-5.4727-9.8789-5.4727s-7.75 2.0703-9.8789 5.4727l-37.246 59.586c-2.2422 3.5938-2.3594 8.1211-0.30469 11.828 2.0547 3.707 5.957 6.0039 10.195 6.0039z" fill="#7f3a5c"/>
</svg>
